<svg xmlns="http://www.w3.org/2000/svg" xmlns:xlink="http://www.w3.org/1999/xlink" width="1440" height="721" version="1.1" viewBox="0 0 1440 721"><title>triangles</title><desc>Created with Sketch.</desc><g id="Page-1" fill="none" fill-rule="evenodd" stroke="none" stroke-width="1"><g id="Main-Page" fill-rule="nonzero"><g id="Hero" transform="translate(-497.000000, -21.000000)"><g id="triangles-ok"><g id="triangles" transform="translate(983.000000, 370.500000) rotate(180.000000) translate(-983.000000, -370.500000)"><polygon id="Shape" fill="#666" stroke="#666" points="1916.85 297.635 1843.125 241.442 1449.106 287.755"/><polygon id="Shape" fill="#6C6C6C" stroke="#6C6C6C" points="1966 0 1435.999 0 1553.14 135.85"/><polygon id="Shape" fill="#5F5F5F" stroke="#5F5F5F" points="1966 453.245 1916.85 297.635 1449.106 287.755"/><polygon id="Shape" fill="#5D5D5D" stroke="#5D5D5D" points="1966 453.245 1449.106 287.755 1852.136 650.845"/><polygon id="Shape" fill="#5B5B5B" stroke="#5B5B5B" points="1852.136 650.845 1449.106 287.755 1663.727 741"/><polygon id="Shape" fill="#565656" stroke="#565656" points="1663.727 741 1449.106 287.755 1516.277 741"/><polygon id="Shape" fill="#616161" stroke="#616161" points="1843.125 241.442 1553.14 135.85 1449.106 287.755"/><polygon id="Shape" fill="#575757" stroke="#575757" points="1516.277 741 1449.106 287.755 1335.242 741"/><polygon id="Shape" fill="#555" stroke="#555" points="1335.242 741 1070.651 320.483 1159.94 741"/><polygon id="Shape" fill="#595959" stroke="#595959" points="1449.106 287.755 1070.651 320.483 1335.242 741"/><polygon id="Shape" fill="#626262" stroke="#626262" points="1553.14 135.85 1423.712 97.565 1449.106 287.755"/><polygon id="Shape" fill="#5E5E5E" stroke="#5E5E5E" points="1553.14 135.85 1435.999 0 1423.712 97.565"/><polygon id="Shape" fill="#606060" stroke="#606060" points="1449.106 287.755 1423.712 97.565 1291.007 144.495"/><polygon id="Shape" fill="#5E5E5E" stroke="#5E5E5E" points="1449.106 287.755 1291.007 144.495 1269.708 188.955"/><polygon id="Shape" fill="#636363" stroke="#636363" points="1435.999 0 1368.008 0 1423.712 97.565"/><polygon id="Shape" fill="#595959" stroke="#595959" points="1449.106 287.755 1269.708 188.955 1070.651 320.483"/><polygon id="Shape" fill="#5B5B5B" stroke="#5B5B5B" points="1423.712 97.565 1368.008 0 1300.017 0"/><polygon id="Shape" fill="#5D5D5D" stroke="#5D5D5D" points="1423.712 97.565 1300.017 0 1291.007 144.495"/><polygon id="Shape" fill="#696969" stroke="#696969" points="1300.017 0 1278.719 143.26 1291.007 144.495"/><polygon id="Shape" fill="#535353" stroke="#535353" points="1300.017 0 1280.358 0 1278.719 143.26"/><polygon id="Shape" fill="#555" stroke="#555" points="1159.94 741 1070.651 320.483 805.241 464.36"/><polygon id="Shape" fill="#565656" stroke="#565656" points="1159.94 741 805.241 464.36 983 741"/><polygon id="Shape" fill="#5A5A5A" stroke="#5A5A5A" points="1280.358 0 1200.079 0 1278.719 143.26"/><polygon id="Shape" fill="#737373" stroke="#737373" points="1291.007 144.495 1278.719 143.26 1269.708 188.955"/><polygon id="Shape" fill="#585858" stroke="#585858" points="1278.719 143.26 1200.079 0 1087.853 0"/><polygon id="Shape" fill="#616161" stroke="#616161" points="1278.719 143.26 1087.853 0 1269.708 188.955"/><polygon id="Shape" fill="#595959" stroke="#595959" points="1269.708 188.955 1087.853 0 923.201 44.46"/><polygon id="Shape" fill="#585858" stroke="#585858" points="1269.708 188.955 923.201 44.46 1070.651 320.483"/><polygon id="Shape" fill="#5B5B5B" stroke="#5B5B5B" points="983 741 805.241 464.36 770.017 520.553"/><polygon id="Shape" fill="#4F4F4F" stroke="#4F4F4F" points="983 741 770.017 520.553 937.127 741"/><polygon id="Shape" fill="#575757" stroke="#575757" points="1070.651 320.483 923.201 44.46 796.23 206.863"/><polygon id="Shape" fill="#535353" stroke="#535353" points="923.201 44.46 54.065 0 151.546 74.1"/><polygon id="Shape" fill="#545454" stroke="#545454" points="983 0 54.065 0 923.201 44.46"/><polygon id="Shape" fill="#5A5A5A" stroke="#5A5A5A" points="1087.853 0 983 0 923.201 44.46"/><polygon id="Shape" fill="#555" stroke="#555" points="1070.651 320.483 796.23 206.863 805.241 464.36"/><polygon id="Shape" fill="#545454" stroke="#545454" points="923.201 44.46 151.546 74.1 527.543 195.13"/><polygon id="Shape" fill="#545454" stroke="#545454" points="937.127 741 770.017 520.553 602.087 741"/><polygon id="Shape" fill="#555" stroke="#555" points="923.201 44.46 527.543 195.13 796.23 206.863"/><polygon id="Shape" fill="#545454" stroke="#545454" points="805.241 464.36 292.442 466.83 770.017 520.553"/><polygon id="Shape" fill="#535353" stroke="#535353" points="805.241 464.36 527.543 195.13 292.442 466.83"/><polygon id="Shape" fill="#555" stroke="#555" points="805.241 464.36 796.23 206.863 527.543 195.13"/><polygon id="Shape" fill="#545454" stroke="#545454" points="770.017 520.553 292.442 466.83 602.087 741"/><polygon id="Shape" fill="#525252" stroke="#525252" points="602.087 741 292.442 466.83 207.249 741"/><polygon id="Shape" fill="#525252" stroke="#525252" points="527.543 195.13 155.642 434.72 292.442 466.83"/><polygon id="Shape" fill="#525252" stroke="#525252" points="527.543 195.13 151.546 74.1 155.642 434.72"/><polygon id="Shape" fill="#545454" stroke="#545454" points="151.546 74.1 0 132.762 0 253.175"/><polygon id="Shape" fill="#515151" stroke="#515151" points="155.642 434.72 151.546 74.1 0 253.175"/><polygon id="Shape" fill="#515151" stroke="#515151" points="155.642 434.72 0 253.175 0 318.63"/><polygon id="Shape" fill="#5E5E5E" stroke="#5E5E5E" points="155.642 434.72 0 318.63 0 326.04"/><polygon id="Shape" fill="#505050" stroke="#505050" points="207.249 741 0 569.335 10.649 666.9"/><polygon id="Shape" fill="#525252" stroke="#525252" points="292.442 466.83 0 569.335 207.249 741"/><polygon id="Shape" fill="#535353" stroke="#535353" points="292.442 466.83 155.642 434.72 0 569.335"/><polygon id="Shape" fill="#575757" stroke="#575757" points="155.642 434.72 0 326.04 0 370.5"/><polygon id="Shape" fill="#535353" stroke="#535353" points="207.249 741 10.649 666.9 0 687.278"/><polygon id="Shape" fill="#515151" stroke="#515151" points="207.249 741 0 687.278 0 741"/><polygon id="Shape" fill="#515151" stroke="#515151" points="155.642 434.72 0 370.5 0 569.335"/><polygon id="Shape" fill="#545454" stroke="#545454" points="151.546 74.1 54.065 0 0 33.962"/><polygon id="Shape" fill="#545454" stroke="#545454" points="151.546 74.1 0 33.962 0 132.762"/><polygon id="Shape" fill="#555" stroke="#555" points="54.065 0 0 0 0 33.962"/></g></g></g></g></g></svg>